<svg xmlns="http://www.w3.org/2000/svg" width="1024" height="1024" viewBox="0 0 1024 1024">
  <defs>
    <linearGradient id="bg" x1="0" y1="0" x2="1" y2="1">
      <stop offset="0" stop-color="#34C759"/>
      <stop offset="1" stop-color="#248A3D"/>
    </linearGradient>
    <filter id="ds" x="-20%" y="-20%" width="140%" height="140%">
      <feDropShadow dx="0" dy="14" stdDeviation="22" flood-color="#0b3d1c" flood-opacity="0.22"/>
    </filter>
  </defs>
  <rect width="1024" height="1024" fill="url(#bg)"/>
  <!-- kulp -->
  <path d="M400 452 C400 356 624 356 624 452" fill="none" stroke="#fff" stroke-width="38" stroke-linecap="round"/>
  <!-- çanta gövdesi -->
  <path filter="url(#ds)" d="M320 430 h384 a44 44 0 0 1 43.7 38.6 l34 300 a52 52 0 0 1 -51.7 57.4 H294 a52 52 0 0 1 -51.7 -57.4 l34 -300 A44 44 0 0 1 320 430 Z" fill="#fff"/>
  <!-- onay işareti -->
  <path d="M424 606 l60 62 l128 -140" fill="none" stroke="#34C759" stroke-width="44" stroke-linecap="round" stroke-linejoin="round"/>
</svg>
